<svg version="1.1" id="Layer_1" xmlns="http://www.w3.org/2000/svg" xmlns:xlink="http://www.w3.org/1999/xlink" x="0px" y="0px"
	 width="100%" viewBox="0 0 856 1031" enable-background="new 0 0 856 1031" xml:space="preserve">
<path fill="#FFFFFE" opacity="1.000000" stroke="none" 
	d="
M857.000000,384.000000 
	C857.000000,600.333313 857.000000,816.166687 857.000000,1032.000000 
	C571.666687,1032.000000 286.333344,1032.000000 1.000000,1032.000000 
	C1.000000,688.333313 1.000000,344.666656 1.000000,1.000000 
	C286.333344,1.000000 571.666687,1.000000 857.000000,1.000000 
	C857.000000,128.500000 857.000000,256.000000 857.000000,384.000000 
M139.997574,538.698730 
	C146.947403,545.599609 153.553299,552.893372 160.907822,559.331970 
	C189.731049,584.565552 223.975586,598.546265 261.097076,605.781189 
	C286.150970,610.664124 311.612854,611.562988 337.108917,610.930847 
	C346.085846,610.708313 355.149628,609.443909 364.020203,610.281311 
	C398.194519,613.507568 427.787476,639.742249 436.063080,673.239136 
	C441.312622,694.487488 438.442688,715.492737 434.328033,736.468750 
	C431.648071,750.130798 427.491821,763.455017 427.820618,777.713806 
	C428.275421,797.435181 440.553314,816.749268 467.714355,812.847168 
	C477.536407,811.436035 485.341827,806.504639 490.349976,797.425598 
	C496.181030,786.854675 496.409210,775.425537 494.282715,764.343994 
	C491.126709,747.896973 486.262756,731.782593 482.296356,715.485168 
	C475.505493,687.582336 473.998230,659.605286 482.062408,631.677490 
	C485.961365,618.174744 490.794006,605.172913 501.836395,595.403625 
	C510.884033,587.398987 519.983765,588.461060 526.421265,598.760315 
	C528.888123,602.707031 531.423523,606.639160 534.265137,610.317261 
	C539.163025,616.656921 545.559631,620.616943 553.742310,621.034790 
	C566.958801,621.709778 576.864685,613.844238 579.811707,599.185730 
	C582.753113,584.555176 584.530090,569.694763 587.144165,554.993103 
	C590.642517,535.318054 599.504761,518.488037 615.041260,505.629517 
	C635.223389,488.926147 654.073547,470.837738 671.149475,451.007263 
	C695.363037,422.887726 715.676636,392.211853 731.023193,358.269775 
	C744.855225,327.677094 754.406250,295.867340 756.659729,262.421753 
	C759.440247,221.153488 755.275574,180.626633 737.587402,142.454956 
	C727.551086,120.796448 714.414917,101.376823 695.727112,85.240425 
	C687.546692,79.310661 679.501770,73.181984 671.156250,67.494453 
	C655.970459,57.145168 638.769226,51.413795 621.132141,47.174412 
	C604.022156,43.061756 586.597778,43.084747 569.108459,44.858959 
	C548.531860,46.946365 529.828857,53.982605 512.520569,65.082230 
	C491.013000,78.874863 469.920990,93.385361 447.847565,106.204948 
	C428.317932,117.547180 407.966949,127.592506 387.482697,137.147217 
	C353.582550,152.959686 318.468048,165.763275 283.001556,177.662399 
	C264.287781,183.940933 245.852921,191.101807 227.496033,198.378693 
	C209.358948,205.568420 192.113556,214.843903 176.958160,227.035751 
	C164.721924,236.879303 153.551666,248.225677 142.902786,259.818665 
	C130.272354,273.568878 120.574471,289.487762 112.657417,306.450226 
	C100.728218,332.008789 93.911919,358.774078 91.695656,386.955536 
	C90.063156,407.714050 91.516052,428.190979 95.549263,448.372528 
	C99.665657,468.970367 106.842461,488.809357 117.672188,506.900360 
	C124.191742,517.791199 132.369431,527.689392 139.997574,538.698730 
M715.940186,954.500000 
	C715.937988,961.999146 716.026794,969.499878 715.888855,976.996521 
	C715.833923,979.980286 716.836792,981.198669 719.918457,981.094421 
	C725.078491,980.919922 730.260681,980.836975 735.411011,981.122192 
	C739.263062,981.335510 740.185486,979.830688 740.148315,976.195557 
	C739.979858,959.699280 739.964966,943.199219 740.128784,926.702820 
	C740.198425,919.686279 740.841309,912.675293 741.306091,904.150513 
	C745.828979,911.120911 749.587280,916.898621 753.331238,922.685669 
	C765.343140,941.252380 777.266235,959.877930 789.488831,978.304810 
	C790.699402,980.130005 793.657715,981.576477 795.925293,981.767212 
	C801.717041,982.254333 807.580261,981.814270 813.408142,981.981018 
	C816.622070,982.072937 817.933777,980.890503 817.876831,977.639771 
	C817.768982,971.476562 817.917847,965.309265 817.927979,959.143616 
	C817.975647,930.147705 817.950317,901.151367 818.123962,872.156250 
	C818.148376,868.087830 816.596313,866.901184 812.804626,867.105957 
	C808.484558,867.339294 804.119995,867.427856 799.815125,867.080200 
	C795.170105,866.705078 793.844604,868.408081 793.833801,873.029602 
	C793.782776,894.839783 793.367737,916.649170 793.071350,938.458679 
	C793.058838,939.378967 792.933655,940.297668 792.830933,941.596924 
	C792.035889,941.078979 791.526550,940.921875 791.307068,940.579163 
	C777.226990,918.593811 763.050171,896.668640 749.198547,874.539978 
	C745.847595,869.186768 742.424500,865.682251 735.455688,866.814575 
	C731.071838,867.527039 726.450928,867.260315 721.986267,866.867004 
	C717.113525,866.437805 715.798279,868.203979 715.837463,873.010742 
	C716.055969,899.838989 715.941589,926.669983 715.940186,954.500000 
M453.796082,871.638672 
	C446.045624,869.448303 438.396820,865.978882 430.522034,865.353088 
	C417.112732,864.287415 403.560425,865.088257 390.070282,864.928040 
	C386.462189,864.885254 385.051758,866.063416 385.054443,869.814941 
	C385.079407,904.793396 385.001831,939.772034 384.838287,974.750122 
	C384.821625,978.313354 385.821625,979.848999 389.628540,979.821594 
	C403.617584,979.720642 417.608948,979.965210 431.598419,979.890320 
	C441.178497,979.838989 449.781738,976.859558 457.622803,971.176331 
	C472.698517,960.249268 475.237396,929.753540 453.758606,920.848145 
	C452.052094,920.140625 450.481964,919.104126 448.421539,917.989624 
	C472.266083,904.165588 467.264221,879.734375 453.796082,871.638672 
M149.168869,908.748047 
	C149.018417,910.234253 148.821548,911.717468 148.724808,913.207153 
	C147.910278,925.750122 147.922226,938.180359 153.745270,949.817627 
	C164.649551,971.609680 184.164169,981.970703 210.173279,979.912781 
	C226.702316,978.604919 239.429886,970.838135 249.022690,957.547913 
	C259.289124,943.324280 261.195343,927.088379 259.441956,910.369446 
	C257.915283,895.812073 251.644119,883.151367 240.082779,873.812439 
	C222.283020,859.434326 202.219696,858.011414 181.772186,866.350098 
	C163.462189,873.817078 153.480194,888.851318 149.168869,908.748047 
M679.496826,981.037415 
	C683.773132,981.037415 688.049438,981.037415 693.743591,981.037415 
	C691.944214,976.257080 690.448303,972.524719 689.125916,968.731750 
	C677.639587,935.786865 666.173828,902.834778 654.739258,869.871826 
	C653.793335,867.144897 652.225159,865.890503 649.200073,866.040283 
	C644.715942,866.262329 640.212891,866.101135 635.717896,866.103210 
	C623.986816,866.108704 623.982971,866.107117 619.616455,876.788879 
	C618.925476,878.479309 618.268127,880.184082 617.626221,881.893860 
	C611.034302,899.453369 604.420471,917.004639 597.870728,934.579834 
	C592.828003,948.111450 587.918152,961.692627 582.839478,975.210632 
	C581.412476,979.008911 582.071533,980.922302 586.512268,980.838562 
	C592.836365,980.719238 599.167542,980.688904 605.489258,980.858398 
	C608.357117,980.935303 609.602905,979.758057 610.395630,977.113281 
	C612.158691,971.230713 614.410156,965.491760 616.093933,959.589111 
	C617.078979,956.135742 618.743652,954.827698 622.426758,954.937744 
	C631.242371,955.200989 640.071350,955.013611 648.894958,955.011597 
	C656.708191,955.009766 656.692139,955.017029 659.060730,962.209839 
	C659.787842,964.417908 660.663330,966.576721 661.412720,968.777893 
	C665.584595,981.032776 665.578430,981.034851 679.496826,981.037415 
M522.832458,943.551392 
	C522.836548,942.384766 522.838623,941.218140 522.845154,940.051514 
	C522.882507,933.340088 523.905640,932.638977 530.822876,933.127991 
	C537.786560,933.620361 544.779175,933.780945 551.762329,933.899109 
	C559.870789,934.036316 559.872314,933.947632 559.875610,925.735352 
	C559.881042,911.963928 559.880981,911.963745 546.148376,911.963013 
	C538.548462,911.962585 530.948547,911.962891 522.847412,911.962891 
	C522.847412,904.945435 523.014771,898.638855 522.782104,892.347046 
	C522.650879,888.798401 523.942810,887.746033 527.397644,887.808899 
	C537.392822,887.990906 547.398010,888.018677 557.388306,887.728577 
	C559.241821,887.674744 562.522217,885.987000 562.622803,884.833557 
	C563.151428,878.772034 562.870178,872.639954 562.870178,866.383057 
	C559.424438,865.923645 556.648560,865.249084 553.868896,865.232666 
	C536.705322,865.131287 519.539673,865.283691 502.377350,865.100830 
	C498.154236,865.055908 496.939728,866.589783 496.974579,870.654968 
	C497.102753,885.614685 496.903198,900.576904 496.881775,915.538269 
	C496.853394,935.368713 496.858917,955.199402 496.902618,975.029785 
	C496.907349,977.183533 496.055817,979.924133 499.937073,979.968201 
	C520.241882,980.198547 540.545959,980.499634 560.849426,980.829468 
	C563.819519,980.877686 565.101501,979.619812 565.046936,976.657959 
	C564.961060,971.993530 564.950378,967.324890 565.050781,962.661011 
	C565.104614,960.161011 564.223267,959.097229 561.594360,959.045715 
	C553.283630,958.882935 544.978577,958.349792 536.668274,958.266052 
	C522.894043,958.127258 522.893005,958.227783 522.832458,943.551392 
M66.782318,956.038147 
	C61.525936,953.466858 56.269550,950.895569 50.020264,947.838562 
	C50.020264,954.433777 50.464386,960.393250 49.894035,966.254028 
	C49.335354,971.994934 52.110756,974.559021 56.936996,975.921326 
	C73.276031,980.533264 89.656975,981.453491 106.069466,976.278625 
	C120.411728,971.756531 129.391754,957.794006 128.027863,942.842163 
	C126.988068,931.443176 121.160538,923.164246 111.672508,917.614136 
	C102.936005,912.503662 93.627068,908.381897 84.698959,903.585205 
	C79.113815,900.584473 76.819130,896.256775 77.641060,891.538208 
	C78.408562,887.131958 82.472443,884.016785 88.675743,882.881958 
	C98.885490,881.014099 108.467102,882.994202 117.690468,887.394836 
	C119.136002,888.084595 120.619354,888.695007 121.888435,889.255249 
	C122.527588,888.619995 122.957329,888.393921 122.962318,888.158875 
	C123.110245,881.189697 123.287674,874.219116 123.226059,867.250732 
	C123.219337,866.490234 121.923637,865.327942 121.012749,865.049744 
	C104.014084,859.858521 86.931206,858.792786 70.195702,865.710022 
	C62.040146,869.080994 55.232578,874.568420 52.118187,883.332520 
	C46.485249,899.183960 52.050621,914.397034 67.401321,923.487427 
	C75.958664,928.554932 85.225174,932.410034 94.008720,937.116394 
	C98.707588,939.634155 101.721123,943.662170 100.714119,949.372131 
	C99.710007,955.065674 95.048851,957.606445 90.218170,957.758667 
	C82.686874,957.995911 75.111412,956.831543 66.782318,956.038147 
M285.814453,893.754333 
	C291.776459,906.026184 297.594940,918.370789 303.769257,930.534912 
	C306.333649,935.586975 307.488556,940.642151 307.326874,946.311523 
	C307.029022,956.754944 307.241791,967.212891 307.241791,978.551880 
	C314.437103,978.551880 321.070374,978.444336 327.697540,978.597961 
	C330.934326,978.673035 332.008118,977.503784 332.005829,974.229187 
	C331.998383,963.582336 332.170868,952.930481 332.565216,942.291382 
	C332.672363,939.400635 333.270996,936.278748 334.556885,933.722107 
	C342.107941,918.709290 349.954346,903.845398 357.649231,888.904480 
	C361.576416,881.279175 365.395416,873.598083 369.748169,864.982483 
	C360.773010,864.982483 352.995880,864.852234 345.232758,865.123047 
	C344.069611,865.163574 342.551819,866.876526 341.916656,868.168884 
	C339.130005,873.839172 336.599426,879.635559 333.991119,885.393127 
	C329.846832,894.540955 325.714630,903.694275 321.292145,913.476074 
	C315.662354,900.405579 309.651642,888.324524 305.281982,875.676453 
	C302.135040,866.567383 297.354828,862.959534 287.870667,864.426025 
	C282.937805,865.188843 277.789795,864.560425 271.784302,864.560425 
	C276.730316,874.844360 281.113586,883.958191 285.814453,893.754333 
z"/>
<path fill="#F4D791" opacity="1.000000" stroke="none" 
	d="
M139.801987,538.033691 
	C132.369431,527.689392 124.191742,517.791199 117.672188,506.900360 
	C106.842461,488.809357 99.665657,468.970367 95.549263,448.372528 
	C91.516052,428.190979 90.063156,407.714050 91.695656,386.955536 
	C93.911919,358.774078 100.728218,332.008789 112.657417,306.450226 
	C120.574471,289.487762 130.272354,273.568878 142.902786,259.818665 
	C153.551666,248.225677 164.721924,236.879303 176.958160,227.035751 
	C192.113556,214.843903 209.358948,205.568420 227.496033,198.378693 
	C245.852921,191.101807 264.287781,183.940933 283.001556,177.662399 
	C318.468048,165.763275 353.582550,152.959686 387.482697,137.147217 
	C407.966949,127.592506 428.317932,117.547180 447.847565,106.204948 
	C469.920990,93.385361 491.013000,78.874863 512.520569,65.082230 
	C529.828857,53.982605 548.531860,46.946365 569.108459,44.858959 
	C586.597778,43.084747 604.022156,43.061756 621.132141,47.174412 
	C638.769226,51.413795 655.970459,57.145168 671.156250,67.494453 
	C679.501770,73.181984 687.546692,79.310661 695.872498,85.947906 
	C697.254761,90.236488 698.371277,93.864845 699.753601,97.388924 
	C702.662842,104.805634 706.276367,111.995117 708.594910,119.585136 
	C714.979370,140.485306 720.230957,161.574341 722.379639,183.520203 
	C724.220764,202.324493 724.529663,221.069016 721.561707,239.487930 
	C718.601318,257.859833 713.784119,276.050354 708.302246,293.865356 
	C702.701416,312.067169 693.654785,328.900696 683.936096,345.330994 
	C670.452759,368.125854 654.389954,388.937927 636.268066,408.152924 
	C617.090210,428.487457 596.027771,446.697449 573.400330,463.156250 
	C553.645630,477.525513 533.140015,490.677277 511.569489,502.078186 
	C498.284637,509.099731 484.703400,515.645142 470.902222,521.583801 
	C453.401123,529.114624 435.825073,536.666138 417.767731,542.661804 
	C393.262329,550.798462 368.371277,557.891113 342.633972,561.283508 
	C325.432007,563.550903 308.276550,566.864563 291.001404,567.725220 
	C263.308289,569.104980 235.549515,568.483765 208.175552,562.962952 
	C190.727036,559.443909 173.824127,554.215515 157.741562,546.483704 
	C151.784439,543.619812 145.783142,540.847656 139.801987,538.033691 
M313.214264,246.565948 
	C328.503571,247.646957 343.685883,247.287140 358.758331,244.012695 
	C385.659485,238.168503 411.210327,229.731094 431.302032,209.481613 
	C441.427704,199.276474 448.023132,187.313599 450.865845,173.338913 
	C452.314148,166.219116 449.969543,159.745575 444.848877,157.769684 
	C439.019684,155.520401 433.753998,157.535004 428.796295,161.532150 
	C416.540680,171.413239 403.764557,180.454422 389.461365,187.417267 
	C363.050598,200.274094 335.459869,209.259415 306.746887,215.141800 
	C300.825409,216.354919 294.848236,217.993988 289.365997,220.474030 
	C282.765778,223.459808 282.236237,229.254471 287.068237,234.622681 
	C293.864410,242.173019 303.193268,244.035324 313.214264,246.565948 
M521.473511,107.043648 
	C513.493896,115.012512 513.648682,129.378403 524.303650,136.390930 
	C532.449890,141.752319 541.018127,141.911270 549.610962,140.435898 
	C562.968262,138.142471 576.192139,134.946014 589.340942,131.612946 
	C596.961060,129.681351 605.011719,128.036575 610.892700,122.270103 
	C613.497375,119.716148 616.196594,116.230461 616.775757,112.815521 
	C619.385620,97.425171 609.553711,86.847916 597.261108,81.040916 
	C586.019165,75.730217 574.244568,77.954750 563.306946,81.655945 
	C547.879028,86.876617 533.646118,94.735992 521.473511,107.043648 
z"/>
<path fill="#E0B882" opacity="1.000000" stroke="none" 
	d="
M139.899780,538.366211 
	C145.783142,540.847656 151.784439,543.619812 157.741562,546.483704 
	C173.824127,554.215515 190.727036,559.443909 208.175552,562.962952 
	C235.549515,568.483765 263.308289,569.104980 291.001404,567.725220 
	C308.276550,566.864563 325.432007,563.550903 342.633972,561.283508 
	C368.371277,557.891113 393.262329,550.798462 417.767731,542.661804 
	C435.825073,536.666138 453.401123,529.114624 470.902222,521.583801 
	C484.703400,515.645142 498.284637,509.099731 511.569489,502.078186 
	C533.140015,490.677277 553.645630,477.525513 573.400330,463.156250 
	C596.027771,446.697449 617.090210,428.487457 636.268066,408.152924 
	C654.389954,388.937927 670.452759,368.125854 683.936096,345.330994 
	C693.654785,328.900696 702.701416,312.067169 708.302246,293.865356 
	C713.784119,276.050354 718.601318,257.859833 721.561707,239.487930 
	C724.529663,221.069016 724.220764,202.324493 722.379639,183.520203 
	C720.230957,161.574341 714.979370,140.485306 708.594910,119.585136 
	C706.276367,111.995117 702.662842,104.805634 699.753601,97.388924 
	C698.371277,93.864845 697.254761,90.236488 696.020996,86.244202 
	C714.414917,101.376823 727.551086,120.796448 737.587402,142.454956 
	C755.275574,180.626633 759.440247,221.153488 756.659729,262.421753 
	C754.406250,295.867340 744.855225,327.677094 731.023193,358.269775 
	C715.676636,392.211853 695.363037,422.887726 671.149475,451.007263 
	C654.073547,470.837738 635.223389,488.926147 615.041260,505.629517 
	C599.504761,518.488037 590.642517,535.318054 587.144165,554.993103 
	C584.530090,569.694763 582.753113,584.555176 579.811707,599.185730 
	C576.864685,613.844238 566.958801,621.709778 553.742310,621.034790 
	C545.559631,620.616943 539.163025,616.656921 534.265137,610.317261 
	C531.423523,606.639160 528.888123,602.707031 526.421265,598.760315 
	C519.983765,588.461060 510.884033,587.398987 501.836395,595.403625 
	C490.794006,605.172913 485.961365,618.174744 482.062408,631.677490 
	C473.998230,659.605286 475.505493,687.582336 482.296356,715.485168 
	C486.262756,731.782593 491.126709,747.896973 494.282715,764.343994 
	C496.409210,775.425537 496.181030,786.854675 490.349976,797.425598 
	C485.341827,806.504639 477.536407,811.436035 467.714355,812.847168 
	C440.553314,816.749268 428.275421,797.435181 427.820618,777.713806 
	C427.491821,763.455017 431.648071,750.130798 434.328033,736.468750 
	C438.442688,715.492737 441.312622,694.487488 436.063080,673.239136 
	C427.787476,639.742249 398.194519,613.507568 364.020203,610.281311 
	C355.149628,609.443909 346.085846,610.708313 337.108917,610.930847 
	C311.612854,611.562988 286.150970,610.664124 261.097076,605.781189 
	C223.975586,598.546265 189.731049,584.565552 160.907822,559.331970 
	C153.553299,552.893372 146.947403,545.599609 139.899780,538.366211 
z"/>
<path fill="#E0B885" opacity="1.000000" stroke="none" 
	d="
M715.940552,954.000000 
	C715.941589,926.669983 716.055969,899.838989 715.837463,873.010742 
	C715.798279,868.203979 717.113525,866.437805 721.986267,866.867004 
	C726.450928,867.260315 731.071838,867.527039 735.455688,866.814575 
	C742.424500,865.682251 745.847595,869.186768 749.198547,874.539978 
	C763.050171,896.668640 777.226990,918.593811 791.307068,940.579163 
	C791.526550,940.921875 792.035889,941.078979 792.830933,941.596924 
	C792.933655,940.297668 793.058838,939.378967 793.071350,938.458679 
	C793.367737,916.649170 793.782776,894.839783 793.833801,873.029602 
	C793.844604,868.408081 795.170105,866.705078 799.815125,867.080200 
	C804.119995,867.427856 808.484558,867.339294 812.804626,867.105957 
	C816.596313,866.901184 818.148376,868.087830 818.123962,872.156250 
	C817.950317,901.151367 817.975647,930.147705 817.927979,959.143616 
	C817.917847,965.309265 817.768982,971.476562 817.876831,977.639771 
	C817.933777,980.890503 816.622070,982.072937 813.408142,981.981018 
	C807.580261,981.814270 801.717041,982.254333 795.925293,981.767212 
	C793.657715,981.576477 790.699402,980.130005 789.488831,978.304810 
	C777.266235,959.877930 765.343140,941.252380 753.331238,922.685669 
	C749.587280,916.898621 745.828979,911.120911 741.306091,904.150513 
	C740.841309,912.675293 740.198425,919.686279 740.128784,926.702820 
	C739.964966,943.199219 739.979858,959.699280 740.148315,976.195557 
	C740.185486,979.830688 739.263062,981.335510 735.411011,981.122192 
	C730.260681,980.836975 725.078491,980.919922 719.918457,981.094421 
	C716.836792,981.198669 715.833923,979.980286 715.888855,976.996521 
	C716.026794,969.499878 715.937988,961.999146 715.940552,954.000000 
z"/>
<path fill="#E0B884" opacity="1.000000" stroke="none" 
	d="
M454.083801,871.862061 
	C467.264221,879.734375 472.266083,904.165588 448.421539,917.989624 
	C450.481964,919.104126 452.052094,920.140625 453.758606,920.848145 
	C475.237396,929.753540 472.698517,960.249268 457.622803,971.176331 
	C449.781738,976.859558 441.178497,979.838989 431.598419,979.890320 
	C417.608948,979.965210 403.617584,979.720642 389.628540,979.821594 
	C385.821625,979.848999 384.821625,978.313354 384.838287,974.750122 
	C385.001831,939.772034 385.079407,904.793396 385.054443,869.814941 
	C385.051758,866.063416 386.462189,864.885254 390.070282,864.928040 
	C403.560425,865.088257 417.112732,864.287415 430.522034,865.353088 
	C438.396820,865.978882 446.045624,869.448303 454.083801,871.862061 
M410.913330,957.233154 
	C411.800659,958.149170 412.703674,959.869385 413.572784,959.852478 
	C419.852661,959.729980 426.195526,959.709961 432.380066,958.758240 
	C437.899017,957.908997 442.787292,951.522949 442.509918,946.011169 
	C442.213348,940.116699 440.463226,933.986572 434.017639,932.929077 
	C427.710052,931.894226 421.285858,931.578369 414.918060,930.898254 
	C411.910919,930.577087 410.776031,931.784546 410.843231,934.846985 
	C410.999939,941.988708 410.894562,949.136108 410.913330,957.233154 
M411.261444,885.933533 
	C411.134918,893.224426 410.892487,900.517151 411.007629,907.804199 
	C411.024750,908.889160 412.780914,910.911926 413.636597,910.861755 
	C419.197784,910.536194 424.871002,910.312744 430.237579,908.973816 
	C435.848572,907.573853 438.302704,902.667603 437.975464,896.104187 
	C437.710144,890.783020 434.702881,886.978149 428.729950,886.096375 
	C423.216492,885.282410 417.546265,885.530762 411.261444,885.933533 
z"/>
<path fill="#6BB570" opacity="1.000000" stroke="none" 
	d="
M149.223145,908.319458 
	C153.480194,888.851318 163.462189,873.817078 181.772186,866.350098 
	C202.219696,858.011414 222.283020,859.434326 240.082779,873.812439 
	C251.644119,883.151367 257.915283,895.812073 259.441956,910.369446 
	C261.195343,927.088379 259.289124,943.324280 249.022690,957.547913 
	C239.429886,970.838135 226.702316,978.604919 210.173279,979.912781 
	C184.164169,981.970703 164.649551,971.609680 153.745270,949.817627 
	C147.922226,938.180359 147.910278,925.750122 148.724808,913.207153 
	C148.821548,911.717468 149.018417,910.234253 149.223145,908.319458 
M181.831680,896.381897 
	C173.449158,910.577026 173.179169,925.439026 178.879745,940.457153 
	C183.309723,952.127991 192.205200,957.988403 204.770508,957.738708 
	C217.111664,957.493530 225.534286,951.285461 229.933746,939.919922 
	C233.304306,931.212524 233.535019,922.042908 232.400177,912.869934 
	C231.404984,904.825867 229.323563,897.068237 223.106262,891.356018 
	C211.324127,880.531067 193.470566,882.528809 181.831680,896.381897 
z"/>
<path fill="#E0B884" opacity="1.000000" stroke="none" 
	d="
M679.001892,981.037415 
	C665.578430,981.034851 665.584595,981.032776 661.412720,968.777893 
	C660.663330,966.576721 659.787842,964.417908 659.060730,962.209839 
	C656.692139,955.017029 656.708191,955.009766 648.894958,955.011597 
	C640.071350,955.013611 631.242371,955.200989 622.426758,954.937744 
	C618.743652,954.827698 617.078979,956.135742 616.093933,959.589111 
	C614.410156,965.491760 612.158691,971.230713 610.395630,977.113281 
	C609.602905,979.758057 608.357117,980.935303 605.489258,980.858398 
	C599.167542,980.688904 592.836365,980.719238 586.512268,980.838562 
	C582.071533,980.922302 581.412476,979.008911 582.839478,975.210632 
	C587.918152,961.692627 592.828003,948.111450 597.870728,934.579834 
	C604.420471,917.004639 611.034302,899.453369 617.626221,881.893860 
	C618.268127,880.184082 618.925476,878.479309 619.616455,876.788879 
	C623.982971,866.107117 623.986816,866.108704 635.717896,866.103210 
	C640.212891,866.101135 644.715942,866.262329 649.200073,866.040283 
	C652.225159,865.890503 653.793335,867.144897 654.739258,869.871826 
	C666.173828,902.834778 677.639587,935.786865 689.125916,968.731750 
	C690.448303,972.524719 691.944214,976.257080 693.743591,981.037415 
	C688.049438,981.037415 683.773132,981.037415 679.001892,981.037415 
M630.232056,913.762329 
	C628.384277,919.436218 626.385559,925.069153 624.824524,930.820862 
	C624.535217,931.886841 625.971497,934.558594 626.677551,934.583130 
	C634.553406,934.856812 642.442322,934.755737 651.043091,934.755737 
	C646.603149,921.039185 642.384705,908.006897 638.166321,894.974609 
	C637.693787,894.972778 637.221191,894.971008 636.748657,894.969238 
	C634.672913,900.989014 632.597168,907.008789 630.232056,913.762329 
z"/>
<path fill="#E0B985" opacity="1.000000" stroke="none" 
	d="
M522.832703,944.040955 
	C522.893005,958.227783 522.894043,958.127258 536.668274,958.266052 
	C544.978577,958.349792 553.283630,958.882935 561.594360,959.045715 
	C564.223267,959.097229 565.104614,960.161011 565.050781,962.661011 
	C564.950378,967.324890 564.961060,971.993530 565.046936,976.657959 
	C565.101501,979.619812 563.819519,980.877686 560.849426,980.829468 
	C540.545959,980.499634 520.241882,980.198547 499.937073,979.968201 
	C496.055817,979.924133 496.907349,977.183533 496.902618,975.029785 
	C496.858917,955.199402 496.853394,935.368713 496.881775,915.538269 
	C496.903198,900.576904 497.102753,885.614685 496.974579,870.654968 
	C496.939728,866.589783 498.154236,865.055908 502.377350,865.100830 
	C519.539673,865.283691 536.705322,865.131287 553.868896,865.232666 
	C556.648560,865.249084 559.424438,865.923645 562.870178,866.383057 
	C562.870178,872.639954 563.151428,878.772034 562.622803,884.833557 
	C562.522217,885.987000 559.241821,887.674744 557.388306,887.728577 
	C547.398010,888.018677 537.392822,887.990906 527.397644,887.808899 
	C523.942810,887.746033 522.650879,888.798401 522.782104,892.347046 
	C523.014771,898.638855 522.847412,904.945435 522.847412,911.962891 
	C530.948547,911.962891 538.548462,911.962585 546.148376,911.963013 
	C559.880981,911.963745 559.881042,911.963928 559.875610,925.735352 
	C559.872314,933.947632 559.870789,934.036316 551.762329,933.899109 
	C544.779175,933.780945 537.786560,933.620361 530.822876,933.127991 
	C523.905640,932.638977 522.882507,933.340088 522.845154,940.051514 
	C522.838623,941.218140 522.836548,942.384766 522.832703,944.040955 
z"/>
<path fill="#6BB570" opacity="1.000000" stroke="none" 
	d="
M67.168495,956.149658 
	C75.111412,956.831543 82.686874,957.995911 90.218170,957.758667 
	C95.048851,957.606445 99.710007,955.065674 100.714119,949.372131 
	C101.721123,943.662170 98.707588,939.634155 94.008720,937.116394 
	C85.225174,932.410034 75.958664,928.554932 67.401321,923.487427 
	C52.050621,914.397034 46.485249,899.183960 52.118187,883.332520 
	C55.232578,874.568420 62.040146,869.080994 70.195702,865.710022 
	C86.931206,858.792786 104.014084,859.858521 121.012749,865.049744 
	C121.923637,865.327942 123.219337,866.490234 123.226059,867.250732 
	C123.287674,874.219116 123.110245,881.189697 122.962318,888.158875 
	C122.957329,888.393921 122.527588,888.619995 121.888435,889.255249 
	C120.619354,888.695007 119.136002,888.084595 117.690468,887.394836 
	C108.467102,882.994202 98.885490,881.014099 88.675743,882.881958 
	C82.472443,884.016785 78.408562,887.131958 77.641060,891.538208 
	C76.819130,896.256775 79.113815,900.584473 84.698959,903.585205 
	C93.627068,908.381897 102.936005,912.503662 111.672508,917.614136 
	C121.160538,923.164246 126.988068,931.443176 128.027863,942.842163 
	C129.391754,957.794006 120.411728,971.756531 106.069466,976.278625 
	C89.656975,981.453491 73.276031,980.533264 56.936996,975.921326 
	C52.110756,974.559021 49.335354,971.994934 49.894035,966.254028 
	C50.464386,960.393250 50.020264,954.433777 50.020264,947.838562 
	C56.269550,950.895569 61.525936,953.466858 67.168495,956.149658 
z"/>
<path fill="#6BB571" opacity="1.000000" stroke="none" 
	d="
M285.655640,893.413208 
	C281.113586,883.958191 276.730316,874.844360 271.784302,864.560425 
	C277.789795,864.560425 282.937805,865.188843 287.870667,864.426025 
	C297.354828,862.959534 302.135040,866.567383 305.281982,875.676453 
	C309.651642,888.324524 315.662354,900.405579 321.292145,913.476074 
	C325.714630,903.694275 329.846832,894.540955 333.991119,885.393127 
	C336.599426,879.635559 339.130005,873.839172 341.916656,868.168884 
	C342.551819,866.876526 344.069611,865.163574 345.232758,865.123047 
	C352.995880,864.852234 360.773010,864.982483 369.748169,864.982483 
	C365.395416,873.598083 361.576416,881.279175 357.649231,888.904480 
	C349.954346,903.845398 342.107941,918.709290 334.556885,933.722107 
	C333.270996,936.278748 332.672363,939.400635 332.565216,942.291382 
	C332.170868,952.930481 331.998383,963.582336 332.005829,974.229187 
	C332.008118,977.503784 330.934326,978.673035 327.697540,978.597961 
	C321.070374,978.444336 314.437103,978.551880 307.241791,978.551880 
	C307.241791,967.212891 307.029022,956.754944 307.326874,946.311523 
	C307.488556,940.642151 306.333649,935.586975 303.769257,930.534912 
	C297.594940,918.370789 291.776459,906.026184 285.655640,893.413208 
z"/>
<path fill="#E0B881" opacity="1.000000" stroke="none" 
	d="
M312.804688,246.409546 
	C303.193268,244.035324 293.864410,242.173019 287.068237,234.622681 
	C282.236237,229.254471 282.765778,223.459808 289.365997,220.474030 
	C294.848236,217.993988 300.825409,216.354919 306.746887,215.141800 
	C335.459869,209.259415 363.050598,200.274094 389.461365,187.417267 
	C403.764557,180.454422 416.540680,171.413239 428.796295,161.532150 
	C433.753998,157.535004 439.019684,155.520401 444.848877,157.769684 
	C449.969543,159.745575 452.314148,166.219116 450.865845,173.338913 
	C448.023132,187.313599 441.427704,199.276474 431.302032,209.481613 
	C411.210327,229.731094 385.659485,238.168503 358.758331,244.012695 
	C343.685883,247.287140 328.503571,247.646957 312.804688,246.409546 
z"/>
<path fill="#FEF7BB" opacity="1.000000" stroke="none" 
	d="
M521.728333,106.787415 
	C533.646118,94.735992 547.879028,86.876617 563.306946,81.655945 
	C574.244568,77.954750 586.019165,75.730217 597.261108,81.040916 
	C609.553711,86.847916 619.385620,97.425171 616.775757,112.815521 
	C616.196594,116.230461 613.497375,119.716148 610.892700,122.270103 
	C605.011719,128.036575 596.961060,129.681351 589.340942,131.612946 
	C576.192139,134.946014 562.968262,138.142471 549.610962,140.435898 
	C541.018127,141.911270 532.449890,141.752319 524.303650,136.390930 
	C513.648682,129.378403 513.493896,115.012512 521.728333,106.787415 
z"/>
<path fill="#FEFDF9" opacity="1.000000" stroke="none" 
	d="
M410.904358,956.757202 
	C410.894562,949.136108 410.999939,941.988708 410.843231,934.846985 
	C410.776031,931.784546 411.910919,930.577087 414.918060,930.898254 
	C421.285858,931.578369 427.710052,931.894226 434.017639,932.929077 
	C440.463226,933.986572 442.213348,940.116699 442.509918,946.011169 
	C442.787292,951.522949 437.899017,957.908997 432.380066,958.758240 
	C426.195526,959.709961 419.852661,959.729980 413.572784,959.852478 
	C412.703674,959.869385 411.800659,958.149170 410.904358,956.757202 
z"/>
<path fill="#FEFCF8" opacity="1.000000" stroke="none" 
	d="
M411.603271,885.622375 
	C417.546265,885.530762 423.216492,885.282410 428.729950,886.096375 
	C434.702881,886.978149 437.710144,890.783020 437.975464,896.104187 
	C438.302704,902.667603 435.848572,907.573853 430.237579,908.973816 
	C424.871002,910.312744 419.197784,910.536194 413.636597,910.861755 
	C412.780914,910.911926 411.024750,908.889160 411.007629,907.804199 
	C410.892487,900.517151 411.134918,893.224426 411.603271,885.622375 
z"/>
<path fill="#FCFEFC" opacity="1.000000" stroke="none" 
	d="
M181.982544,896.052246 
	C193.470566,882.528809 211.324127,880.531067 223.106262,891.356018 
	C229.323563,897.068237 231.404984,904.825867 232.400177,912.869934 
	C233.535019,922.042908 233.304306,931.212524 229.933746,939.919922 
	C225.534286,951.285461 217.111664,957.493530 204.770508,957.738708 
	C192.205200,957.988403 183.309723,952.127991 178.879745,940.457153 
	C173.179169,925.439026 173.449158,910.577026 181.982544,896.052246 
z"/>
<path fill="#FDFBF5" opacity="1.000000" stroke="none" 
	d="
M630.376770,913.395447 
	C632.597168,907.008789 634.672913,900.989014 636.748657,894.969238 
	C637.221191,894.971008 637.693787,894.972778 638.166321,894.974609 
	C642.384705,908.006897 646.603149,921.039185 651.043091,934.755737 
	C642.442322,934.755737 634.553406,934.856812 626.677551,934.583130 
	C625.971497,934.558594 624.535217,931.886841 624.824524,930.820862 
	C626.385559,925.069153 628.384277,919.436218 630.376770,913.395447 
z"/>
</svg>